<svg xmlns="http://www.w3.org/2000/svg" width="140" height="40"><g data-name="Group 4685" transform="translate(-570 -926.5)"><rect width="140" height="40" data-name="Rectangle 101" rx="2" transform="translate(570 926.5)" fill="#222"></rect><g data-name="Group 4524" fill="#ccc"><text data-name="Available on the" transform="translate(619.279 940.5)" font-size="8" font-family="ArialMT,Arial"><tspan x="0" y="0">Available on the</tspan></text><text data-name="App Store" transform="translate(619.279 955.5)" font-size="12" font-family="Arial-BoldMT,Arial" font-weight="700"><tspan x="0" y="0">App Store</tspan></text><path d="M609.457 945.626a4.585 4.585 0 012.456-4.165 5.279 5.279 0 00-4.16-2.191c-1.744-.137-3.649 1.017-4.347 1.017-.737 0-2.426-.967-3.752-.967-2.741.044-5.654 2.185-5.654 6.542a12.228 12.228 0 00.708 3.988c.628 1.8 2.9 6.223 5.265 6.149 1.238-.029 2.112-.879 3.723-.879 1.562 0 2.372.879 3.752.879 2.387-.034 4.44-4.052 5.04-5.859a4.869 4.869 0 01-3.031-4.514zm-2.78-8.065a4.627 4.627 0 001.179-3.561 5.211 5.211 0 00-3.335 1.714 4.7 4.7 0 00-1.257 3.532 4.123 4.123 0 003.413-1.685z" data-name="Path 536"></path></g></g></svg>