<svg xmlns="http://www.w3.org/2000/svg" width="140" height="40"><g data-name="Group 4686" transform="translate(-410 -926.5)"><rect width="140" height="40" data-name="Rectangle 60" rx="2" transform="translate(410 926.5)" fill="#222"></rect><g data-name="Group 4523" fill="#ccc"><g data-name="Group 2992"><text data-name="Android app on" transform="translate(458.735 940.5)" font-size="8" font-family="ArialMT,Arial"><tspan x="0" y="0">Android app on</tspan></text><text data-name="Google Play" transform="translate(458.735 955.5)" font-size="12" font-family="Arial-BoldMT,Arial" font-weight="700"><tspan x="0" y="0">Google Play</tspan></text></g><path d="M446.889 946.07l-9.485-9.511 12.068 6.928-2.583 2.583zM434.928 936a1.671 1.671 0 00-.932 1.517v18.966a1.671 1.671 0 00.932 1.517l11.028-11zm18.274 9.7l-2.531-1.466-2.824 2.772 2.824 2.772 2.583-1.465a1.723 1.723 0 00-.052-2.613zm-15.8 11.75l12.068-6.928-2.581-2.587z" data-name="Path 535"></path></g></g></svg>